<svg width="123" height="28" viewBox="0 0 123 28" fill="none" xmlns="http://www.w3.org/2000/svg">
<path d="M11.1033 20.948C11.0773 20.09 11.0773 19.232 11.0773 18.374C11.0773 13.902 11.3893 9.326 11.7533 4.646C7.7493 5.01 3.9793 7.324 2.2893 10.288C1.7693 11.224 1.5093 12.29 1.5093 13.33C1.5093 16.086 3.3033 18.764 6.8133 18.712C7.2033 18.712 7.6453 18.66 8.0093 18.556C8.2173 18.478 8.4773 18.634 8.2173 18.816C8.0873 18.894 7.3073 19.128 6.2933 19.128C4.7593 19.128 2.6533 18.608 1.3273 16.372C0.859297 15.592 0.599297 14.5 0.599297 13.33C0.599297 12.134 0.859297 10.834 1.5093 9.69C3.1993 6.7 7.0993 4.308 11.2593 3.866L11.8313 3.814C11.9613 2.462 12.0913 1.318 12.2473 0.615999C12.2733 0.511999 12.2213 0.434 12.6373 0.511999C12.8973 0.537998 13.1573 0.745999 13.1573 0.875999C13.0273 1.604 12.8973 2.592 12.7933 3.762C14.1193 3.71 15.5233 3.814 16.8493 4.1C20.7493 4.88 22.5173 7.142 22.5693 9.274C22.6213 11.302 21.0353 13.382 18.5393 14.24C20.1773 14.942 21.6593 16.138 22.4393 18.01C23.4533 17.88 24.7013 17.802 25.6633 17.802C26.5213 17.802 27.1713 17.854 27.3273 18.036C27.5093 18.218 27.3273 18.322 27.1713 18.348C25.5593 18.478 24.0773 18.608 22.7513 18.816L22.6993 18.842C22.7513 19.154 22.7773 19.466 22.7773 19.778C22.7773 23.106 20.0473 25.706 16.7973 26.824C15.4973 27.292 13.9633 27.526 12.5073 27.5C11.1553 27.448 7.3593 26.824 7.3593 24.822C7.3593 24.588 7.4113 24.354 7.5153 24.068C8.1133 22.742 9.5433 21.702 11.1033 20.948ZM21.6593 18.114C20.9833 16.346 19.2673 15.098 17.5513 14.578C16.9793 14.708 16.4073 14.734 15.7313 14.76C14.7173 14.812 13.4953 14.708 13.3133 14.318C13.2353 13.902 13.3913 13.876 13.5733 13.798C13.9893 13.564 14.6393 13.408 15.4193 13.408C16.0173 13.408 16.7193 13.512 17.4733 13.746C19.2673 13.46 21.6073 11.458 21.6333 9.404C21.6593 7.584 20.0213 5.374 16.4333 4.724C15.5493 4.594 14.6393 4.516 13.7033 4.516C13.3653 4.516 13.0533 4.516 12.7153 4.542C12.4033 9.3 12.0133 15.41 11.9353 20.558C12.6373 20.246 13.3393 20.012 13.9893 19.778C16.5633 18.868 19.5533 18.426 21.6593 18.114ZM14.5613 20.558C13.7813 20.844 12.8453 21.156 11.9613 21.572C12.0133 22.612 12.1173 23.496 12.3513 24.068C12.3773 24.198 12.3253 24.276 12.1693 24.276C11.8833 24.25 11.6493 23.912 11.5713 23.704C11.3893 23.314 11.2593 22.69 11.1813 21.962C9.9333 22.612 8.7633 23.496 8.1393 24.64C7.5153 26.434 10.7913 26.668 12.0653 26.694C13.3913 26.746 14.8993 26.538 16.2773 26.096C19.0333 25.16 22.2313 22.95 21.8933 18.946C18.9293 19.414 16.6413 19.804 14.5613 20.558ZM37.7612 19.83C36.8512 19.544 35.9152 18.686 35.3952 17.672C34.2252 18.634 33.6792 19.102 32.9772 19.57C32.7692 19.674 32.2752 19.414 32.1192 19.128C31.8592 18.556 31.7032 17.958 31.4692 16.944C30.1432 17.802 29.4152 19.18 28.4012 20.064C28.1932 20.246 27.5172 19.726 27.4392 19.414C27.4132 19.024 27.3872 18.634 27.3872 18.27C27.3872 17.438 27.4652 16.684 27.5692 16.034C27.6472 15.592 28.5052 16.164 28.4272 16.502C28.4532 17.178 28.3492 17.646 28.3752 18.504C29.2852 17.516 30.1692 16.476 31.2872 15.93C31.4952 15.826 31.9372 16.086 32.1452 16.372C32.4312 17.048 32.4572 17.594 32.6912 18.504L35.2132 16.45C35.3952 16.32 35.8892 16.58 36.0712 16.866C36.4092 17.542 36.3572 18.582 37.2672 18.868C37.8132 19.024 38.6712 19.076 39.7372 19.076C42.8052 19.076 47.2772 18.556 48.4472 18.218C48.6292 18.166 49.5912 17.932 49.7212 18.14C49.9292 18.348 48.8372 18.764 48.6552 18.816C46.8092 19.414 43.0132 20.038 40.1272 20.038C39.2172 20.038 38.4112 19.96 37.7612 19.83ZM60.3036 14.032C61.6036 14.136 65.1916 14.812 69.1696 16.502C72.1076 11.952 74.6816 7.22 76.6836 2.878L76.7096 2.852H76.7616V2.8C77.0216 2.566 77.8276 3.164 77.6456 3.45L77.5936 3.528H77.5676C77.5416 3.996 77.5156 4.49 77.5156 4.958C77.5156 8.572 78.2696 12.264 79.3616 17.88C81.6756 17.62 84.9256 17.152 85.3416 17.126C85.4456 17.022 85.2116 17.62 84.9256 17.828C84.3536 18.218 81.4676 18.53 79.5176 18.686C80.1416 21.572 80.8436 24.172 81.6236 27.084C81.6756 27.266 81.0516 27.838 80.7916 27.422C78.6856 23.756 75.6956 20.584 72.4716 18.868L72.3936 18.842C71.1196 18.816 69.9756 18.764 68.8836 18.686C64.2296 25.368 62.0456 27.734 59.9916 27.11C59.7836 26.902 59.7576 26.642 60.0176 26.668C62.2016 26.85 65.0356 22.612 67.7656 18.608C61.9676 18.062 59.1596 16.814 58.4576 15.774C58.2496 15.488 58.1716 15.202 58.1716 14.942C58.1716 14.5 58.4316 14.136 58.9256 14.058C59.3156 13.98 59.7576 13.98 60.3036 14.032ZM72.3936 18.088C73.7976 18.14 75.9556 18.01 78.3996 17.958H78.4256C77.5156 13.954 76.5016 8 76.5536 5.192C74.7076 9.378 72.8356 12.316 70.3656 16.554L70.1056 16.918C70.8596 17.282 71.6396 17.672 72.3936 18.088ZM59.1596 15.384C59.6536 16.268 63.9696 17.49 68.2596 17.854L68.8316 16.996C64.8796 15.228 61.8116 14.812 60.6676 14.682C60.3296 14.63 58.7956 14.578 59.1596 15.384ZM78.2176 18.764C76.4756 18.79 74.9156 18.894 73.7456 18.894C75.8256 20.22 77.8276 21.858 79.4916 23.886L80.1156 24.64C79.5696 22.638 79.0496 20.714 78.6076 18.764H78.2176ZM70.8596 17.958L69.7676 17.412C69.6636 17.594 69.5336 17.776 69.4036 17.932C69.8976 17.958 70.3916 17.958 70.8596 17.958ZM84.1273 20.506C83.8153 20.35 83.5813 19.7 84.1533 19.83C84.3873 19.882 84.6733 19.908 85.0113 19.908C85.8433 19.908 86.8833 19.778 87.5593 19.622C86.9093 19.284 85.9213 18.79 85.4013 18.504C84.7253 18.114 83.9973 17.854 83.8933 17.074C83.6853 15.696 86.5193 14.864 87.8453 14.682C88.2613 14.63 88.7813 15.124 88.5733 15.384C87.6113 15.722 85.2453 16.164 84.9593 16.84C84.8033 17.204 85.4013 17.464 85.9213 17.776C86.9093 18.322 87.6893 18.712 88.2093 19.128C88.7813 19.622 88.2873 20.35 87.6113 20.532C87.1433 20.662 86.4673 20.74 85.7913 20.74C85.1413 20.74 84.5173 20.662 84.1273 20.506ZM91.1648 20.506C91.1388 20.454 91.1388 20.142 91.1388 19.648V15.956C91.1388 12.368 91.2688 9.17 91.4508 5.842C91.4508 5.478 92.4648 5.79 92.4648 6.18C92.1268 9.508 92.0748 12.888 92.0228 16.45V18.764C92.8288 17.854 95.0388 15.774 96.5208 16.242C96.8848 16.346 97.2748 16.658 97.3788 16.996C97.4568 17.62 97.2488 18.348 97.4308 19.102C97.6908 19.232 97.9768 19.284 98.2628 19.284C99.6148 19.284 102.423 18.192 103.255 17.074C103.489 16.788 103.359 17.62 102.969 18.192C102.397 19.05 100.447 20.038 98.7828 20.038C98.2108 20.038 97.6388 19.908 97.0408 19.518C96.4428 19.076 96.3128 18.4 96.3128 17.854C96.3128 17.49 96.3648 17.178 96.3648 16.996C94.8828 16.918 92.1528 19.674 92.0488 20.87C92.0748 21.26 91.2688 20.922 91.1648 20.506ZM102.795 19.856C102.405 19.44 102.223 18.556 102.223 17.698C102.223 16.892 102.379 16.086 102.665 15.644C102.691 15.514 102.951 15.488 103.263 15.566C103.549 15.67 103.705 15.878 103.679 16.008C103.471 16.216 102.951 19.154 103.341 19.492C103.549 19.648 103.809 19.726 104.095 19.726C105.707 19.726 108.463 17.646 109.243 16.866C109.347 16.762 109.607 16.918 109.295 17.49C108.801 18.4 106.435 20.454 104.641 20.532C103.991 20.558 103.289 20.402 102.795 19.856ZM103.341 13.824C103.029 13.72 102.873 13.486 103.003 13.382C103.055 13.304 103.237 12.784 103.289 12.654L103.341 12.264C103.341 12.108 103.627 12.056 103.887 12.16C104.225 12.238 104.433 12.446 104.381 12.576C104.381 12.68 104.381 12.862 104.303 13.018C104.251 13.148 104.043 13.72 103.965 13.85C103.887 13.954 103.575 13.954 103.341 13.824ZM119.258 18.218C118.764 18.686 117.1 20.428 114.63 20.428C113.33 20.428 111.744 19.934 110.756 18.738C110.184 19.466 109.872 20.766 109.846 21.962C109.846 22.352 109.144 22.014 108.988 21.572C108.936 20.662 108.91 19.7 108.91 18.738C108.91 14.11 109.144 9.17 109.196 5.946C109.196 5.79 109.43 5.686 109.664 5.79C109.95 5.868 110.184 6.076 110.21 6.232C110.106 9.586 110.054 13.33 109.82 18.218C110.652 16.814 111.796 15.124 113.304 14.994C113.876 14.942 114.24 15.358 114.37 15.67C114.76 16.632 112.914 18.114 111.666 18.478C112.108 19.024 113.434 19.57 114.526 19.492C116.398 19.362 118.634 17.854 119.674 16.97C120.012 16.684 119.7 17.802 119.258 18.218ZM113.408 15.722C113.07 15.592 112.212 16.32 111.198 17.932C111.822 17.88 113.59 16.398 113.408 15.722ZM121.657 20.168C121.475 19.934 121.553 19.544 121.839 19.31C122.125 19.076 122.489 19.076 122.671 19.31C122.853 19.544 122.775 19.934 122.489 20.168C122.203 20.402 121.839 20.402 121.657 20.168Z" fill="#00234B"/>
</svg>
